<svg width="120" height="36" viewBox="0 0 120 36" fill="none" xmlns="http://www.w3.org/2000/svg">
<path d="M10.1306 31.8867C9.47512 31.8867 8.97389 31.7036 8.62689 31.3373C8.27989 30.971 8.10638 30.4602 8.10638 29.8047V13.0618C8.10638 12.4064 8.28952 11.8955 8.6558 11.5292C9.04136 11.163 9.56187 10.9798 10.2173 10.9798C10.7957 10.9798 11.2487 11.0955 11.5764 11.3268C11.9234 11.5389 12.2415 11.9148 12.5307 12.4546L19.2105 24.6575H18.2273L24.9071 12.4546C25.1963 11.9148 25.5047 11.5389 25.8324 11.3268C26.1794 11.0955 26.6325 10.9798 27.1915 10.9798C27.847 10.9798 28.3482 11.163 28.6952 11.5292C29.0615 11.8955 29.2446 12.4064 29.2446 13.0618V29.8047C29.2446 30.4602 29.0711 30.971 28.7241 31.3373C28.3771 31.7036 27.8759 31.8867 27.2204 31.8867C26.565 31.8867 26.0541 31.7036 25.6878 31.3373C25.3408 30.971 25.1673 30.4602 25.1673 29.8047V18.0934H25.8035L20.425 27.7227C20.1936 28.089 19.943 28.3685 19.6731 28.5613C19.4225 28.7348 19.0852 28.8215 18.661 28.8215C18.2369 28.8215 17.8899 28.7251 17.62 28.5324C17.3501 28.3396 17.1092 28.0697 16.8971 27.7227L11.4607 18.0645H12.1547V29.8047C12.1547 30.4602 11.9812 30.971 11.6342 31.3373C11.3065 31.7036 10.8053 31.8867 10.1306 31.8867Z" fill="white"/>
<path d="M37.9479 31.8867C37.2154 31.8867 36.6563 31.6843 36.2707 31.2795C35.8852 30.8746 35.6924 30.3059 35.6924 29.5734V13.2932C35.6924 12.5606 35.8852 11.9919 36.2707 11.5871C36.6563 11.1822 37.2154 10.9798 37.9479 10.9798C38.6612 10.9798 39.2106 11.1822 39.5962 11.5871C39.9817 11.9919 40.1745 12.5606 40.1745 13.2932V29.5734C40.1745 30.3059 39.9817 30.8746 39.5962 31.2795C39.2299 31.6843 38.6805 31.8867 37.9479 31.8867ZM39.654 9.30264C39.3649 9.59181 39.0564 9.74603 38.7287 9.76531C38.401 9.76531 38.1021 9.66892 37.8323 9.47614C37.5816 9.26409 37.4178 9.01347 37.3407 8.7243C37.2636 8.43513 37.331 8.13633 37.5431 7.82788L39.6251 4.76269C39.8564 4.37713 40.136 4.15544 40.4637 4.0976C40.8107 4.02049 41.1481 4.04941 41.4758 4.18435C41.8228 4.30002 42.1023 4.4928 42.3144 4.76269C42.5264 5.0133 42.6421 5.30247 42.6614 5.6302C42.6807 5.93864 42.5457 6.24709 42.2565 6.55554L39.654 9.30264Z" fill="white"/>
<path d="M48.846 31.8867C48.1134 31.8867 47.5544 31.6843 47.1688 31.2795C46.7832 30.8746 46.5905 30.3059 46.5905 29.5734V13.5245C46.5905 12.7727 46.7832 12.204 47.1688 11.8184C47.5736 11.4329 48.1423 11.2401 48.8749 11.2401H55.9017C58.1765 11.2401 59.9308 11.7895 61.1646 12.8883C62.3983 13.9872 63.0152 15.5198 63.0152 17.4861C63.0152 18.7585 62.7357 19.8573 62.1767 20.7826C61.6176 21.708 60.8079 22.4213 59.7476 22.9225C58.7066 23.4237 57.4246 23.6743 55.9017 23.6743L56.133 23.1827H57.3186C58.1283 23.1827 58.8319 23.3852 59.4296 23.79C60.0464 24.1756 60.5766 24.7732 61.02 25.5828L62.8128 28.9083C63.0827 29.3902 63.208 29.8625 63.1887 30.3252C63.1695 30.7879 62.996 31.1638 62.6682 31.453C62.3405 31.7421 61.8586 31.8867 61.2224 31.8867C60.5862 31.8867 60.0657 31.7518 59.6609 31.4819C59.2753 31.212 58.9283 30.7975 58.6199 30.2385L55.8439 25.1202C55.5547 24.5804 55.198 24.2141 54.7739 24.0213C54.3691 23.8286 53.8679 23.7322 53.2703 23.7322H51.0726V29.5734C51.0726 30.3059 50.8798 30.8746 50.4942 31.2795C50.128 31.6843 49.5785 31.8867 48.846 31.8867ZM51.0726 20.4935H55.092C56.2872 20.4935 57.1837 20.2525 57.7813 19.7706C58.3982 19.2886 58.7066 18.5657 58.7066 17.6018C58.7066 16.6572 58.3982 15.9439 57.7813 15.4619C57.1837 14.98 56.2872 14.739 55.092 14.739H51.0726V20.4935Z" fill="white"/>
<path d="M78.3529 31.9446C76.348 31.9446 74.5841 31.5108 73.0611 30.6433C71.5575 29.7565 70.3815 28.5227 69.5333 26.9419C68.7043 25.3611 68.2899 23.5201 68.2899 21.4188C68.2899 19.8187 68.5212 18.3825 68.9839 17.1102C69.4658 15.8186 70.1502 14.7197 71.037 13.8137C71.9238 12.8883 72.984 12.1751 74.2178 11.6738C75.4709 11.1726 76.8493 10.922 78.3529 10.922C80.3964 10.922 82.17 11.3557 83.6736 12.2232C85.1773 13.0908 86.3436 14.3149 87.1726 15.8957C88.0208 17.4572 88.4449 19.2886 88.4449 21.3899C88.4449 22.99 88.204 24.4358 87.722 25.7274C87.2401 27.019 86.5557 28.1275 85.6689 29.0529C84.7821 29.9782 83.7218 30.6915 82.4881 31.1927C81.2543 31.6939 79.8759 31.9446 78.3529 31.9446ZM78.3529 28.1275C79.4903 28.1275 80.4542 27.8673 81.2446 27.3468C82.0543 26.807 82.6712 26.0359 83.0953 25.0334C83.5387 24.0117 83.7604 22.8068 83.7604 21.4188C83.7604 19.2982 83.2881 17.6596 82.3435 16.5029C81.3988 15.327 80.0687 14.739 78.3529 14.739C77.2348 14.739 76.2709 14.9993 75.4613 15.5198C74.6516 16.0403 74.0347 16.8018 73.6106 17.8042C73.1865 18.8067 72.9744 20.0115 72.9744 21.4188C72.9744 23.5201 73.4467 25.1684 74.3913 26.3636C75.3359 27.5396 76.6565 28.1275 78.3529 28.1275Z" fill="#028B2F"/>
<path d="M96.3074 31.8867C95.6327 31.8867 95.1122 31.7036 94.7459 31.3373C94.3989 30.9517 94.2254 30.412 94.2254 29.718V13.2353C94.2254 12.5028 94.3989 11.9437 94.7459 11.5582C95.1122 11.1726 95.5941 10.9798 96.1917 10.9798C96.7122 10.9798 97.1074 11.0858 97.3773 11.2979C97.6665 11.4907 97.9942 11.8184 98.3605 12.2811L108.51 25.2069H107.73V13.1197C107.73 12.4449 107.903 11.9244 108.25 11.5582C108.616 11.1726 109.137 10.9798 109.812 10.9798C110.486 10.9798 110.997 11.1726 111.344 11.5582C111.71 11.9244 111.894 12.4449 111.894 13.1197V29.8047C111.894 30.4409 111.73 30.9517 111.402 31.3373C111.074 31.7036 110.631 31.8867 110.072 31.8867C109.532 31.8867 109.098 31.7807 108.771 31.5686C108.462 31.3566 108.125 31.0192 107.758 30.5565L97.6376 17.6307H98.3894V29.718C98.3894 30.412 98.2159 30.9517 97.8689 31.3373C97.5219 31.7036 97.0014 31.8867 96.3074 31.8867Z" fill="white"/>
</svg>
