<svg width="134" height="175" viewBox="0 0 134 175" fill="none" xmlns="http://www.w3.org/2000/svg">
<g clip-path="url(#clip0_14006_3836)">
<path fill-rule="evenodd" clip-rule="evenodd" d="M17.173 14.3443C6.58342 10.6345 6.49294 11.0516 5.5766 10.728C4.55368 10.3669 4.79905 8.90379 7.10485 9.47506C16.0612 11.6973 49.4557 15.6739 53.2192 17.4215C55.6584 18.5541 76.0417 28.0211 83.9314 31.0822C93.6269 34.8434 95.1743 33.9876 100.74 45.9544C104.28 53.5665 103.846 53.7322 104.195 62.1257C104.309 64.8616 113.821 65.459 117.188 70.0223C120.313 74.2566 115.54 91.5956 112.773 98.8466C99.3235 134.097 82.2559 141.608 58.3269 154.586C46.8677 160.801 47.7518 165.968 46.1553 163.387C45.591 162.476 40.8275 154.779 39.5155 151.74C38.6099 149.645 41.1442 151.147 53.7007 142.354C59.0324 138.62 58.0064 137.741 61.7315 128.884C65.2765 120.457 68.6765 119.794 68.8881 119.384C69.7907 117.64 52.9523 102.141 45.8632 90.6916C35.6815 74.2489 68.9633 45.7022 69.3559 45.5718C70.8619 45.0703 77.8337 53.4699 79.7239 56.3025C81.5121 58.9848 81.3411 56.1116 81.2989 55.9904C78.2455 47.2296 67.4258 39.7303 65.9022 38.6744C43.4937 23.1419 21.6067 16.0412 17.173 14.3443Z" fill="#0B8F36"/>
<path fill-rule="evenodd" clip-rule="evenodd" d="M27.6974 23.2738C33.7199 25.7981 38.4895 27.0043 37.626 29.0655C30.4203 46.2535 0.693475 41.6948 0.016383 21.4695C-0.00815487 20.7449 -0.317944 11.4903 3.28375 13.0139C5.23452 13.839 23.7652 21.6781 27.6974 23.2738Z" fill="#028B2F"/>
<path fill-rule="evenodd" clip-rule="evenodd" d="M65.7005 69.0484C66.1177 68.8467 66.2181 67.9864 66.9389 68.9717C66.942 68.9748 73.6416 80.6778 74.8539 81.7468C78.5261 84.9819 90.108 84.9459 91.4614 84.9413C94.9305 84.9305 94.8768 84.676 98.3711 84.6645C100.839 84.656 99.9607 85.8423 99.5114 88.2386C95.7931 108.074 90.9178 117.877 89.7238 120.277C84.0456 131.694 71.769 136.11 71.3657 136.066C68.4334 135.748 75.6928 132.269 78.2746 129.44C85.5624 121.454 81.6647 119.162 69.9425 109.698C62.5505 103.73 55.3056 94.3209 55.7933 92.9307C56.758 90.184 56.4597 95.5048 69.408 107.045C72.384 109.698 84.2672 118.22 85.3323 118.184C86.8176 118.133 91.9437 104.984 90.3411 102.994C77.1643 86.6329 75.0264 86.1038 73.1278 85.6345C70.263 84.926 71.0229 84.0334 70.1764 81.2154C68.5937 75.9512 66.0617 70.0652 65.7005 69.0484Z" fill="#2A2A2A"/>
<path fill-rule="evenodd" clip-rule="evenodd" d="M127.597 41.2731C144.125 55.8869 117.638 75.2542 107.768 57.3898C106.795 55.6285 105.138 48.6989 107.052 46.1899C107.552 45.5342 114.966 32.7753 127.597 41.2731Z" fill="#028A2F"/>
<path fill-rule="evenodd" clip-rule="evenodd" d="M85.4251 173.738C84.0295 173.385 82.2413 172.316 81.4937 172.261C81.0252 172.226 80.4278 172.061 81.3626 166.388C85.1031 143.68 84.9742 143.4 86.5684 142.232C87.5806 141.49 94.6161 136.334 97.9502 131.444C99.1426 129.697 99.9692 130.829 99.6287 131.854C98.49 135.286 98.5192 135.249 97.6174 138.787C96.9303 141.479 89.4079 170.973 88.9686 172.427C88.3099 174.61 87.6665 174.192 85.4251 173.738Z" fill="#69C385"/>
<path fill-rule="evenodd" clip-rule="evenodd" d="M31.757 3.67338C32.26 4.09053 39.7785 10.3346 36.229 10.5087C35.4752 10.5455 35.5956 9.95661 7.8632 6.18085C3.92487 5.64408 11.9833 0.527941 18.62 0.0517528C26.0473 -0.481179 31.0431 3.2409 31.757 3.67338Z" fill="#048830"/>
</g>
<defs>
<clipPath id="clip0_14006_3836">
<rect width="133.145" height="174.206" fill="white"/>
</clipPath>
</defs>
</svg>
